<svg width="16" height="16" viewBox="0 0 16 16" fill="none" xmlns="http://www.w3.org/2000/svg">
<path fill-rule="evenodd" clip-rule="evenodd" d="M14.8841 1.29306C15.2746 1.68359 15.2746 2.31675 14.8841 2.70728L2.70728 14.8841C2.31675 15.2746 1.68359 15.2746 1.29306 14.8841L1.11629 14.7073C0.725762 14.3168 0.725762 13.6836 1.11629 13.2931L13.2931 1.11629C13.6836 0.725762 14.3168 0.725762 14.7073 1.11629L14.8841 1.29306Z" fill="#999999"/>
<path fill-rule="evenodd" clip-rule="evenodd" d="M1.29306 1.11629C1.68359 0.725762 2.31675 0.725762 2.70728 1.11629L14.8841 13.2931C15.2746 13.6836 15.2746 14.3168 14.8841 14.7073L14.7073 14.8841C14.3168 15.2746 13.6836 15.2746 13.2931 14.8841L1.11629 2.70728C0.725762 2.31675 0.725762 1.68359 1.11629 1.29306L1.29306 1.11629Z" fill="#999999"/>
</svg>
