<svg aria-hidden="true" style="position: absolute; width: 0; height: 0; overflow: hidden;" version="1.1" xmlns="http://www.w3.org/2000/svg" xmlns:xlink="http://www.w3.org/1999/xlink">
<defs>
<symbol id="icon-photoshop" viewBox="0 0 32 32">
<path fill="" style="" d="M5.667 0h20.667c0.744-0.001 1.482 0.149 2.169 0.441s1.313 0.72 1.839 1.26c0.526 0.54 0.944 1.181 1.228 1.886s0.431 1.462 0.43 2.225v20.376c0.001 0.764-0.145 1.52-0.43 2.225s-0.702 1.346-1.228 1.886c-0.526 0.54-1.151 0.968-1.839 1.26s-1.425 0.442-2.169 0.441h-20.667c-0.744 0.001-1.482-0.149-2.169-0.441s-1.313-0.72-1.839-1.26c-0.526-0.54-0.944-1.181-1.228-1.886s-0.431-1.462-0.43-2.225v-20.376c-0.001-0.763 0.145-1.52 0.43-2.225s0.702-1.346 1.228-1.886c0.526-0.54 1.151-0.968 1.839-1.26s1.425-0.442 2.169-0.441z"></path>
<path fill="" style="" d="M7.2 22.441v-14.072c0-0.096 0.040-0.15 0.133-0.15 0.227 0 0.44 0 0.747-0.014s0.653-0.014 1.013-0.027c0.36-0.014 0.747-0.014 1.16-0.027s0.813-0.014 1.213-0.014c1.093 0 2 0.137 2.747 0.424 0.669 0.233 1.28 0.616 1.787 1.121 0.43 0.442 0.762 0.974 0.973 1.559 0.202 0.57 0.306 1.171 0.307 1.778 0 1.176-0.267 2.147-0.8 2.913-0.536 0.765-1.284 1.346-2.147 1.668-0.907 0.342-1.907 0.465-3 0.465-0.32 0-0.533 0-0.667-0.014s-0.32-0.014-0.573-0.014v4.39c0.003 0.023 0.002 0.045-0.004 0.067s-0.016 0.042-0.030 0.060c-0.014 0.018-0.031 0.033-0.050 0.044s-0.041 0.018-0.063 0.020h-2.587c-0.107 0-0.16-0.055-0.16-0.178zM10.107 10.858v4.595c0.187 0.014 0.36 0.027 0.52 0.027h0.707c0.521 0.001 1.038-0.082 1.533-0.246 0.425-0.128 0.805-0.38 1.093-0.725 0.28-0.342 0.413-0.807 0.413-1.409 0.012-0.427-0.094-0.85-0.307-1.217-0.222-0.355-0.549-0.628-0.933-0.78-0.501-0.201-1.036-0.294-1.573-0.274-0.347 0-0.653 0-0.907 0.014-0.182-0.012-0.365-0.008-0.547 0.014z"></path>
<path fill="" style="" d="M25.6 14.619c-0.403-0.217-0.834-0.374-1.28-0.465-0.49-0.114-0.991-0.174-1.493-0.178-0.27-0.010-0.54 0.023-0.8 0.096-0.166 0.036-0.313 0.133-0.413 0.274-0.067 0.111-0.104 0.239-0.107 0.369 0.006 0.13 0.053 0.255 0.133 0.356 0.126 0.152 0.28 0.277 0.453 0.369 0.307 0.164 0.627 0.315 0.947 0.451 0.72 0.249 1.41 0.584 2.053 0.998 0.438 0.282 0.8 0.673 1.053 1.135 0.214 0.436 0.32 0.92 0.307 1.409 0.011 0.646-0.171 1.281-0.52 1.819-0.372 0.546-0.891 0.969-1.493 1.217-0.653 0.287-1.453 0.438-2.413 0.438-0.609 0.003-1.216-0.057-1.813-0.178-0.47-0.083-0.928-0.23-1.36-0.438-0.047-0.024-0.085-0.061-0.111-0.107s-0.038-0.099-0.035-0.152v-2.38c-0.001-0.023 0.003-0.047 0.012-0.068s0.023-0.040 0.041-0.055c0.019-0.011 0.041-0.016 0.062-0.014s0.042 0.012 0.058 0.027c0.514 0.311 1.071 0.537 1.653 0.67 0.514 0.137 1.043 0.206 1.573 0.205 0.507 0 0.867-0.068 1.107-0.191 0.107-0.051 0.198-0.132 0.262-0.233s0.098-0.22 0.099-0.341c0-0.192-0.107-0.369-0.32-0.547s-0.653-0.383-1.307-0.643c-0.67-0.242-1.307-0.573-1.893-0.985-0.418-0.305-0.764-0.703-1.013-1.162-0.213-0.432-0.318-0.911-0.307-1.395 0.002-0.584 0.159-1.156 0.453-1.655 0.339-0.549 0.825-0.986 1.4-1.258 0.627-0.328 1.413-0.479 2.36-0.479 0.553 0 1.106 0.041 1.653 0.123 0.394 0.055 0.779 0.16 1.147 0.315 0.059 0.021 0.107 0.066 0.133 0.123 0.015 0.053 0.024 0.108 0.027 0.164v2.229c0 0.027-0.006 0.053-0.017 0.077s-0.029 0.044-0.049 0.060c-0.078 0.029-0.163 0.029-0.24 0z"></path>
</symbol>
<symbol id="icon-burger-icon" viewBox="0 0 32 32">
<path fill="" style="" d="M28.364 11.273c0 0.602-0.488 1.091-1.091 1.091h-22.545c-0.603 0-1.091-0.488-1.091-1.091s0.488-1.091 1.091-1.091h22.545c0.602 0 1.091 0.488 1.091 1.091z"></path>
<path fill="" style="" d="M28.364 17.091c0 0.602-0.488 1.091-1.091 1.091h-22.545c-0.603 0-1.091-0.488-1.091-1.091s0.488-1.091 1.091-1.091h22.545c0.602 0 1.091 0.488 1.091 1.091z"></path>
<path fill="" style="" d="M28.364 22.909c0 0.602-0.488 1.091-1.091 1.091h-22.545c-0.603 0-1.091-0.488-1.091-1.091s0.488-1.091 1.091-1.091h22.545c0.602 0 1.091 0.488 1.091 1.091z"></path>
</symbol>
<symbol id="icon-Logo" viewBox="0 0 126 32">
<path fill="#fec830" style="fill: var(--color1, #fec830)" d="M47.59 6.159c-0.065-0.983 0.683-1.832 1.666-1.889l73.31-4.267c0.966-0.056 1.8 0.674 1.871 1.64l1.779 23.93c0.074 0.986-0.673 1.842-1.66 1.903l-73.486 4.522c-0.974 0.060-1.814-0.679-1.878-1.654l-1.603-24.184z"></path>
<path fill="#000" style="fill: var(--color2, #000)" d="M3.354 30.454c-0.988 0.057-1.831-0.699-1.882-1.688-0.323-6.359-1.159-19.201-1.468-23.899-0.065-0.983 0.683-1.821 1.666-1.879l38.153-2.266c0.585-0.035 1.15 0.222 1.508 0.686l9.024 11.685c0.45 0.583 0.493 1.383 0.109 2.012l-7.543 12.323c-0.304 0.496-0.831 0.811-1.411 0.845l-38.157 2.181z"></path>
<path fill="#fff" style="fill: var(--color3, #fff)" d="M9.75 16.502c-0.065-0.875 0.051-1.754 0.342-2.582 0.275-0.796 0.708-1.529 1.273-2.157 0.583-0.635 1.286-1.15 2.070-1.516 0.838-0.399 1.747-0.632 2.675-0.688 1.066-0.071 2.020 0.022 2.86 0.279 0.859 0.266 1.665 0.68 2.378 1.224l-1.886 2.578c-0.451-0.335-0.952-0.597-1.485-0.777-0.529-0.163-1.086-0.224-1.639-0.178-0.433 0.021-0.856 0.134-1.241 0.332s-0.723 0.474-0.991 0.811c-0.578 0.701-0.834 1.532-0.769 2.491 0.069 1.021 0.449 1.842 1.137 2.464s1.533 0.898 2.531 0.83c0.816-0.055 1.479-0.281 1.989-0.677l-0.107-1.571-2.511 0.168-0.171-2.507 5.815-0.389 0.386 5.652c-1.494 1.384-3.275 2.144-5.341 2.281-1.298 0.087-2.489-0.11-3.572-0.593-1.060-0.462-1.968-1.21-2.621-2.158-0.664-0.957-1.039-2.062-1.124-3.316z"></path>
<path fill="#fff" style="fill: var(--color3, #fff)" d="M25.244 15.484c-0.063-0.869 0.057-1.742 0.351-2.564 0.28-0.799 0.716-1.536 1.282-2.169 0.584-0.64 1.288-1.162 2.073-1.534 1.687-0.802 3.619-0.932 5.4-0.365 0.823 0.262 1.587 0.682 2.246 1.236 0.642 0.551 1.166 1.223 1.544 1.976 0.399 0.782 0.633 1.637 0.688 2.512 0.062 0.87-0.057 1.742-0.351 2.564-0.278 0.8-0.712 1.537-1.278 2.171-0.582 0.639-1.284 1.16-2.068 1.531-0.833 0.403-1.738 0.639-2.663 0.695-1.274 0.085-2.452-0.126-3.532-0.635-1.050-0.485-1.948-1.243-2.597-2.194-0.652-0.957-1.031-2.071-1.097-3.223zM28.83 15.244c0.063 0.926 0.422 1.701 1.078 2.325s1.451 0.904 2.385 0.841c0.946-0.063 1.696-0.442 2.25-1.138s0.799-1.515 0.735-2.459c-0.063-0.926-0.422-1.701-1.078-2.325s-1.457-0.904-2.405-0.84c-0.934 0.063-1.678 0.442-2.232 1.137s-0.799 1.515-0.733 2.459z"></path>
<path fill="#fff" style="fill: var(--color3, #fff)" d="M58.586 24.195l-0.854-12.514 3.498-0.234 0.857 12.514-3.501 0.234z"></path>
<path fill="#fff" style="fill: var(--color3, #fff)" d="M63.239 14.372l-0.208-3.046 11.084-0.741 0.208 3.046-3.796 0.253 0.646 9.471-3.498 0.234-0.646-9.471-3.79 0.256z"></path>
<path fill="#fff" style="fill: var(--color3, #fff)" d="M74.089 18.309c-0.050-0.677 0.029-1.357 0.231-2.006 0.186-0.612 0.491-1.182 0.898-1.678 0.411-0.49 0.918-0.891 1.491-1.178 0.609-0.309 1.276-0.49 1.959-0.53 0.817-0.055 1.555 0.038 2.215 0.277 0.622 0.216 1.182 0.58 1.629 1.059 0.433 0.475 0.775 1.024 1.009 1.621 0.252 0.644 0.402 1.324 0.442 2.013 0.022 0.308 0.031 0.541 0.031 0.699l-6.538 0.437c0.171 0.521 0.451 0.907 0.838 1.159s0.851 0.36 1.389 0.323c0.76-0.053 1.459-0.437 2.098-1.152l2.001 1.441c-0.951 1.366-2.323 2.11-4.114 2.229-1.016 0.068-1.934-0.081-2.754-0.447-0.805-0.353-1.491-0.928-1.975-1.656-0.499-0.74-0.783-1.611-0.851-2.612zM77.286 17.289l3.392-0.227c-0.102-0.537-0.313-0.952-0.633-1.245s-0.713-0.425-1.177-0.394c-0.21 0.010-0.414 0.065-0.601 0.159s-0.351 0.228-0.481 0.39c-0.281 0.337-0.447 0.776-0.499 1.317z"></path>
<path fill="#fff" style="fill: var(--color3, #fff)" d="M85.186 17.567c-0.050-0.677 0.028-1.358 0.231-2.006 0.187-0.612 0.492-1.181 0.898-1.678 0.411-0.489 0.918-0.89 1.491-1.178 0.609-0.309 1.277-0.489 1.96-0.53 0.816-0.055 1.555 0.038 2.215 0.277 0.622 0.215 1.181 0.578 1.629 1.057 0.434 0.475 0.775 1.024 1.009 1.62 0.252 0.645 0.402 1.326 0.443 2.016 0.021 0.308 0.031 0.541 0.030 0.699l-6.537 0.438c0.171 0.52 0.45 0.906 0.838 1.158s0.851 0.36 1.389 0.324c0.764-0.052 1.463-0.436 2.1-1.154l2.001 1.441c-0.952 1.366-2.324 2.11-4.115 2.229-1.016 0.068-1.934-0.080-2.754-0.447-0.805-0.353-1.491-0.928-1.976-1.656-0.5-0.74-0.784-1.611-0.852-2.612zM88.383 16.547l3.392-0.227c-0.102-0.536-0.314-0.952-0.635-1.245s-0.713-0.425-1.177-0.394c-0.21 0.010-0.414 0.065-0.601 0.16s-0.351 0.228-0.481 0.391c-0.281 0.338-0.448 0.777-0.499 1.317z"></path>
<path fill="#fff" style="fill: var(--color3, #fff)" d="M97.009 21.625l-0.659-9.671 3.428-0.229 0.093 1.37c0.764-1.115 1.702-1.71 2.813-1.784 1.034-0.070 1.868 0.193 2.501 0.788s0.988 1.445 1.064 2.55l0.431 6.329-3.428 0.229-0.359-5.224c-0.036-0.517-0.188-0.907-0.458-1.172s-0.613-0.383-1.031-0.356c-0.43 0.029-0.769 0.195-1.014 0.496s-0.351 0.708-0.316 1.219l0.356 5.224-3.422 0.231z"></path>
<path fill="#fff" style="fill: var(--color3, #fff)" d="M107.8 19.642l1.146-2.143c1.177 0.643 2.321 0.927 3.431 0.853 0.575-0.040 0.851-0.237 0.827-0.593-0.012-0.17-0.139-0.302-0.38-0.397s-0.659-0.196-1.243-0.305c-0.443-0.084-0.82-0.166-1.132-0.248-0.33-0.088-0.652-0.203-0.962-0.345-0.291-0.125-0.561-0.294-0.8-0.501-0.218-0.203-0.395-0.446-0.522-0.715-0.149-0.313-0.236-0.652-0.253-0.998-0.070-1.024 0.236-1.846 0.92-2.466s1.607-0.969 2.77-1.046c0.723-0.048 1.448 0.007 2.156 0.164 0.684 0.145 1.342 0.391 1.952 0.73l-1.025 2.233c-0.507-0.226-1.035-0.404-1.576-0.53-0.528-0.121-0.986-0.168-1.372-0.142-0.259 0.017-0.452 0.073-0.582 0.167-0.060 0.040-0.109 0.095-0.141 0.16s-0.044 0.137-0.038 0.209c0.012 0.17 0.137 0.303 0.377 0.397s0.661 0.207 1.267 0.337c0.443 0.089 0.82 0.178 1.133 0.265 0.329 0.094 0.651 0.213 0.962 0.356 0.292 0.125 0.561 0.293 0.8 0.501 0.216 0.2 0.393 0.438 0.521 0.702 0.149 0.303 0.235 0.632 0.252 0.968 0.072 1.056-0.231 1.892-0.908 2.506s-1.628 0.962-2.851 1.044c-1.745 0.116-3.32-0.273-4.726-1.165z"></path>
</symbol>
</defs>
</svg>
