<svg aria-hidden="true" style="position: absolute; width: 0; height: 0; overflow: hidden;" version="1.1" xmlns="http://www.w3.org/2000/svg" xmlns:xlink="http://www.w3.org/1999/xlink">
<defs>
<symbol id="icon-photoshop" viewBox="0 0 32 32">
<path fill="#001e36" style="fill: var(--color4, #001e36)" d="M5.667 0h20.667c0.744-0.001 1.482 0.149 2.169 0.441s1.313 0.72 1.839 1.26c0.526 0.54 0.944 1.181 1.228 1.886s0.431 1.462 0.43 2.225v20.376c0.001 0.764-0.145 1.52-0.43 2.225s-0.702 1.346-1.228 1.886c-0.526 0.54-1.151 0.968-1.839 1.26s-1.425 0.442-2.169 0.441h-20.667c-0.744 0.001-1.482-0.149-2.169-0.441s-1.313-0.72-1.839-1.26c-0.526-0.54-0.944-1.181-1.228-1.886s-0.431-1.462-0.43-2.225v-20.376c-0.001-0.763 0.145-1.52 0.43-2.225s0.702-1.346 1.228-1.886c0.526-0.54 1.151-0.968 1.839-1.26s1.425-0.442 2.169-0.441z"></path>
<path fill="#31a8ff" style="fill: var(--color5, #31a8ff)" d="M7.2 22.441v-14.072c0-0.096 0.040-0.15 0.133-0.15 0.227 0 0.44 0 0.747-0.014s0.653-0.014 1.013-0.027c0.36-0.014 0.747-0.014 1.16-0.027s0.813-0.014 1.213-0.014c1.093 0 2 0.137 2.747 0.424 0.669 0.233 1.28 0.616 1.787 1.121 0.43 0.442 0.762 0.974 0.973 1.559 0.202 0.57 0.306 1.171 0.307 1.778 0 1.176-0.267 2.147-0.8 2.913-0.536 0.765-1.284 1.346-2.147 1.668-0.907 0.342-1.907 0.465-3 0.465-0.32 0-0.533 0-0.667-0.014s-0.32-0.014-0.573-0.014v4.39c0.003 0.023 0.002 0.045-0.004 0.067s-0.016 0.042-0.030 0.060c-0.014 0.018-0.031 0.033-0.050 0.044s-0.041 0.018-0.063 0.020h-2.587c-0.107 0-0.16-0.055-0.16-0.178zM10.107 10.858v4.595c0.187 0.014 0.36 0.027 0.52 0.027h0.707c0.521 0.001 1.038-0.082 1.533-0.246 0.425-0.128 0.805-0.38 1.093-0.725 0.28-0.342 0.413-0.807 0.413-1.409 0.012-0.427-0.094-0.85-0.307-1.217-0.222-0.355-0.549-0.628-0.933-0.78-0.501-0.201-1.036-0.294-1.573-0.274-0.347 0-0.653 0-0.907 0.014-0.182-0.012-0.365-0.008-0.547 0.014z"></path>
<path fill="#31a8ff" style="fill: var(--color5, #31a8ff)" d="M25.6 14.619c-0.403-0.217-0.834-0.374-1.28-0.465-0.49-0.114-0.991-0.174-1.493-0.178-0.27-0.010-0.54 0.023-0.8 0.096-0.166 0.036-0.313 0.133-0.413 0.274-0.067 0.111-0.104 0.239-0.107 0.369 0.006 0.13 0.053 0.255 0.133 0.356 0.126 0.152 0.28 0.277 0.453 0.369 0.307 0.164 0.627 0.315 0.947 0.451 0.72 0.249 1.41 0.584 2.053 0.998 0.438 0.282 0.8 0.673 1.053 1.135 0.214 0.436 0.32 0.92 0.307 1.409 0.011 0.646-0.171 1.281-0.52 1.819-0.372 0.546-0.891 0.969-1.493 1.217-0.653 0.287-1.453 0.438-2.413 0.438-0.609 0.003-1.216-0.057-1.813-0.178-0.47-0.083-0.928-0.23-1.36-0.438-0.047-0.024-0.085-0.061-0.111-0.107s-0.038-0.099-0.035-0.152v-2.38c-0.001-0.023 0.003-0.047 0.012-0.068s0.023-0.040 0.041-0.055c0.019-0.011 0.041-0.016 0.062-0.014s0.042 0.012 0.058 0.027c0.514 0.311 1.071 0.537 1.653 0.67 0.514 0.137 1.043 0.206 1.573 0.205 0.507 0 0.867-0.068 1.107-0.191 0.107-0.051 0.198-0.132 0.262-0.233s0.098-0.22 0.099-0.341c0-0.192-0.107-0.369-0.32-0.547s-0.653-0.383-1.307-0.643c-0.67-0.242-1.307-0.573-1.893-0.985-0.418-0.305-0.764-0.703-1.013-1.162-0.213-0.432-0.318-0.911-0.307-1.395 0.002-0.584 0.159-1.156 0.453-1.655 0.339-0.549 0.825-0.986 1.4-1.258 0.627-0.328 1.413-0.479 2.36-0.479 0.553 0 1.106 0.041 1.653 0.123 0.394 0.055 0.779 0.16 1.147 0.315 0.059 0.021 0.107 0.066 0.133 0.123 0.015 0.053 0.024 0.108 0.027 0.164v2.229c0 0.027-0.006 0.053-0.017 0.077s-0.029 0.044-0.049 0.060c-0.078 0.029-0.163 0.029-0.24 0z"></path>
</symbol>
<symbol id="icon-mobile" viewBox="0 0 23 32">
<path fill="#fff" style="fill: var(--color1, #fff)" d="M4.364 2.909c-0.803 0-1.455 0.651-1.455 1.455v23.273c0 0.803 0.651 1.455 1.455 1.455h14.545c0.803 0 1.455-0.651 1.455-1.455v-23.273c0-0.803-0.651-1.455-1.455-1.455h-14.545zM0 4.364c0-2.41 1.954-4.364 4.364-4.364h14.545c2.41 0 4.364 1.954 4.364 4.364v23.273c0 2.41-1.954 4.364-4.364 4.364h-14.545c-2.41 0-4.364-1.954-4.364-4.364v-23.273z"></path>
<path fill="#fff" style="fill: var(--color1, #fff)" d="M10.182 24.727c0-0.803 0.651-1.455 1.455-1.455h0.015c0.803 0 1.455 0.651 1.455 1.455s-0.651 1.455-1.455 1.455h-0.015c-0.803 0-1.455-0.651-1.455-1.455z"></path>
</symbol>
<symbol id="icon-burger-icon" viewBox="0 0 32 32">
<path fill="" style="" d="M28.364 11.273c0 0.602-0.488 1.091-1.091 1.091h-22.545c-0.603 0-1.091-0.488-1.091-1.091s0.488-1.091 1.091-1.091h22.545c0.602 0 1.091 0.488 1.091 1.091z"></path>
<path fill="" style="" d="M28.364 17.091c0 0.602-0.488 1.091-1.091 1.091h-22.545c-0.603 0-1.091-0.488-1.091-1.091s0.488-1.091 1.091-1.091h22.545c0.602 0 1.091 0.488 1.091 1.091z"></path>
<path fill="" style="" d="M28.364 22.909c0 0.602-0.488 1.091-1.091 1.091h-22.545c-0.603 0-1.091-0.488-1.091-1.091s0.488-1.091 1.091-1.091h22.545c0.602 0 1.091 0.488 1.091 1.091z"></path>
</symbol>
<symbol id="icon-Logo" viewBox="0 0 126 32">
<path fill="#fec830" style="fill: var(--color1, #fec830)" d="M47.59 6.159c-0.065-0.983 0.683-1.832 1.666-1.889l73.31-4.267c0.966-0.056 1.8 0.674 1.871 1.64l1.779 23.93c0.074 0.986-0.673 1.842-1.66 1.903l-73.486 4.522c-0.974 0.060-1.814-0.679-1.878-1.654l-1.603-24.184z"></path>
<path fill="#000" style="fill: var(--color2, #000)" d="M3.354 30.454c-0.988 0.057-1.831-0.699-1.882-1.688-0.323-6.359-1.159-19.201-1.468-23.899-0.065-0.983 0.683-1.821 1.666-1.879l38.153-2.266c0.585-0.035 1.15 0.222 1.508 0.686l9.024 11.685c0.45 0.583 0.493 1.383 0.109 2.012l-7.543 12.323c-0.304 0.496-0.831 0.811-1.411 0.845l-38.157 2.181z"></path>
<path fill="#fff" style="fill: var(--color3, #fff)" d="M9.75 16.502c-0.065-0.875 0.051-1.754 0.342-2.582 0.275-0.796 0.708-1.529 1.273-2.157 0.583-0.635 1.286-1.15 2.070-1.516 0.838-0.399 1.747-0.632 2.675-0.688 1.066-0.071 2.020 0.022 2.86 0.279 0.859 0.266 1.665 0.68 2.378 1.224l-1.886 2.578c-0.451-0.335-0.952-0.597-1.485-0.777-0.529-0.163-1.086-0.224-1.639-0.178-0.433 0.021-0.856 0.134-1.241 0.332s-0.723 0.474-0.991 0.811c-0.578 0.701-0.834 1.532-0.769 2.491 0.069 1.021 0.449 1.842 1.137 2.464s1.533 0.898 2.531 0.83c0.816-0.055 1.479-0.281 1.989-0.677l-0.107-1.571-2.511 0.168-0.171-2.507 5.815-0.389 0.386 5.652c-1.494 1.384-3.275 2.144-5.341 2.281-1.298 0.087-2.489-0.11-3.572-0.593-1.060-0.462-1.968-1.21-2.621-2.158-0.664-0.957-1.039-2.062-1.124-3.316z"></path>
<path fill="#fff" style="fill: var(--color3, #fff)" d="M25.244 15.484c-0.063-0.869 0.057-1.742 0.351-2.564 0.28-0.799 0.716-1.536 1.282-2.169 0.584-0.64 1.288-1.162 2.073-1.534 1.687-0.802 3.619-0.932 5.4-0.365 0.823 0.262 1.587 0.682 2.246 1.236 0.642 0.551 1.166 1.223 1.544 1.976 0.399 0.782 0.633 1.637 0.688 2.512 0.062 0.87-0.057 1.742-0.351 2.564-0.278 0.8-0.712 1.537-1.278 2.171-0.582 0.639-1.284 1.16-2.068 1.531-0.833 0.403-1.738 0.639-2.663 0.695-1.274 0.085-2.452-0.126-3.532-0.635-1.050-0.485-1.948-1.243-2.597-2.194-0.652-0.957-1.031-2.071-1.097-3.223zM28.83 15.244c0.063 0.926 0.422 1.701 1.078 2.325s1.451 0.904 2.385 0.841c0.946-0.063 1.696-0.442 2.25-1.138s0.799-1.515 0.735-2.459c-0.063-0.926-0.422-1.701-1.078-2.325s-1.457-0.904-2.405-0.84c-0.934 0.063-1.678 0.442-2.232 1.137s-0.799 1.515-0.733 2.459z"></path>
<path fill="#fff" style="fill: var(--color3, #fff)" d="M58.586 24.195l-0.854-12.514 3.498-0.234 0.857 12.514-3.501 0.234z"></path>
<path fill="#fff" style="fill: var(--color3, #fff)" d="M63.239 14.372l-0.208-3.046 11.084-0.741 0.208 3.046-3.796 0.253 0.646 9.471-3.498 0.234-0.646-9.471-3.79 0.256z"></path>
<path fill="#fff" style="fill: var(--color3, #fff)" d="M74.089 18.309c-0.050-0.677 0.029-1.357 0.231-2.006 0.186-0.612 0.491-1.182 0.898-1.678 0.411-0.49 0.918-0.891 1.491-1.178 0.609-0.309 1.276-0.49 1.959-0.53 0.817-0.055 1.555 0.038 2.215 0.277 0.622 0.216 1.182 0.58 1.629 1.059 0.433 0.475 0.775 1.024 1.009 1.621 0.252 0.644 0.402 1.324 0.442 2.013 0.022 0.308 0.031 0.541 0.031 0.699l-6.538 0.437c0.171 0.521 0.451 0.907 0.838 1.159s0.851 0.36 1.389 0.323c0.76-0.053 1.459-0.437 2.098-1.152l2.001 1.441c-0.951 1.366-2.323 2.11-4.114 2.229-1.016 0.068-1.934-0.081-2.754-0.447-0.805-0.353-1.491-0.928-1.975-1.656-0.499-0.74-0.783-1.611-0.851-2.612zM77.286 17.289l3.392-0.227c-0.102-0.537-0.313-0.952-0.633-1.245s-0.713-0.425-1.177-0.394c-0.21 0.010-0.414 0.065-0.601 0.159s-0.351 0.228-0.481 0.39c-0.281 0.337-0.447 0.776-0.499 1.317z"></path>
<path fill="#fff" style="fill: var(--color3, #fff)" d="M85.186 17.567c-0.050-0.677 0.028-1.358 0.231-2.006 0.187-0.612 0.492-1.181 0.898-1.678 0.411-0.489 0.918-0.89 1.491-1.178 0.609-0.309 1.277-0.489 1.96-0.53 0.816-0.055 1.555 0.038 2.215 0.277 0.622 0.215 1.181 0.578 1.629 1.057 0.434 0.475 0.775 1.024 1.009 1.62 0.252 0.645 0.402 1.326 0.443 2.016 0.021 0.308 0.031 0.541 0.030 0.699l-6.537 0.438c0.171 0.52 0.45 0.906 0.838 1.158s0.851 0.36 1.389 0.324c0.764-0.052 1.463-0.436 2.1-1.154l2.001 1.441c-0.952 1.366-2.324 2.11-4.115 2.229-1.016 0.068-1.934-0.080-2.754-0.447-0.805-0.353-1.491-0.928-1.976-1.656-0.5-0.74-0.784-1.611-0.852-2.612zM88.383 16.547l3.392-0.227c-0.102-0.536-0.314-0.952-0.635-1.245s-0.713-0.425-1.177-0.394c-0.21 0.010-0.414 0.065-0.601 0.16s-0.351 0.228-0.481 0.391c-0.281 0.338-0.448 0.777-0.499 1.317z"></path>
<path fill="#fff" style="fill: var(--color3, #fff)" d="M97.009 21.625l-0.659-9.671 3.428-0.229 0.093 1.37c0.764-1.115 1.702-1.71 2.813-1.784 1.034-0.070 1.868 0.193 2.501 0.788s0.988 1.445 1.064 2.55l0.431 6.329-3.428 0.229-0.359-5.224c-0.036-0.517-0.188-0.907-0.458-1.172s-0.613-0.383-1.031-0.356c-0.43 0.029-0.769 0.195-1.014 0.496s-0.351 0.708-0.316 1.219l0.356 5.224-3.422 0.231z"></path>
<path fill="#fff" style="fill: var(--color3, #fff)" d="M107.8 19.642l1.146-2.143c1.177 0.643 2.321 0.927 3.431 0.853 0.575-0.040 0.851-0.237 0.827-0.593-0.012-0.17-0.139-0.302-0.38-0.397s-0.659-0.196-1.243-0.305c-0.443-0.084-0.82-0.166-1.132-0.248-0.33-0.088-0.652-0.203-0.962-0.345-0.291-0.125-0.561-0.294-0.8-0.501-0.218-0.203-0.395-0.446-0.522-0.715-0.149-0.313-0.236-0.652-0.253-0.998-0.070-1.024 0.236-1.846 0.92-2.466s1.607-0.969 2.77-1.046c0.723-0.048 1.448 0.007 2.156 0.164 0.684 0.145 1.342 0.391 1.952 0.73l-1.025 2.233c-0.507-0.226-1.035-0.404-1.576-0.53-0.528-0.121-0.986-0.168-1.372-0.142-0.259 0.017-0.452 0.073-0.582 0.167-0.060 0.040-0.109 0.095-0.141 0.16s-0.044 0.137-0.038 0.209c0.012 0.17 0.137 0.303 0.377 0.397s0.661 0.207 1.267 0.337c0.443 0.089 0.82 0.178 1.133 0.265 0.329 0.094 0.651 0.213 0.962 0.356 0.292 0.125 0.561 0.293 0.8 0.501 0.216 0.2 0.393 0.438 0.521 0.702 0.149 0.303 0.235 0.632 0.252 0.968 0.072 1.056-0.231 1.892-0.908 2.506s-1.628 0.962-2.851 1.044c-1.745 0.116-3.32-0.273-4.726-1.165z"></path>
</symbol>
<symbol id="icon-chevron-down" viewBox="0 0 32 32">
<path fill="none" stroke="#d6d6d6" style="stroke: var(--color1, #d6d6d6)" stroke-linejoin="round" stroke-linecap="round" stroke-miterlimit="4" stroke-width="2.6667" d="M8 12l8 8 8-8"></path>
</symbol>
<symbol id="icon-close-sign" viewBox="0 0 27 32">
<path fill="#999" style="fill: var(--color2, #999)" d="M25.179 7.057c0.521 0.521 0.521 1.365 0 1.886l-16.236 16.236c-0.521 0.521-1.365 0.521-1.886 0l-0.236-0.236c-0.521-0.521-0.521-1.365 0-1.886l16.236-16.236c0.521-0.521 1.365-0.521 1.886 0l0.236 0.236z"></path>
<path fill="#999" style="fill: var(--color2, #999)" d="M7.057 6.822c0.521-0.521 1.365-0.521 1.886 0l16.236 16.236c0.521 0.521 0.521 1.365 0 1.886l-0.236 0.236c-0.521 0.521-1.365 0.521-1.886 0l-16.236-16.236c-0.521-0.521-0.521-1.365 0-1.886l0.236-0.236z"></path>
</symbol>
<symbol id="canva" viewBox="0 0 99 32">
<path d="M97.443 21.8c-0.167 0-0.318 0.108-0.397 0.335-1.004 2.883-2.361 4.597-3.478 4.597-0.642 0-0.901-0.719-0.901-1.848 0-2.823 1.68-8.81 2.528-11.54 0.098-0.33 0.162-0.626 0.162-0.877 0-0.793-0.431-1.183-1.499-1.183-1.151 0-2.391 0.453-3.596 2.577-0.416-1.872-1.675-2.69-3.434-2.69-2.033 0-3.997 1.316-5.614 3.449s-3.517 2.833-4.948 2.488c1.029-2.533 1.411-4.425 1.411-5.829 0-2.203-1.083-3.533-2.831-3.533-2.66 0-4.193 2.552-4.193 5.238 0 2.074 0.936 4.208 2.993 5.243-1.724 3.922-4.242 7.47-5.197 7.47-1.235 0-1.597-6.076-1.529-10.422 0.044-2.493 0.25-2.621 0.25-3.375 0-0.434-0.279-0.729-1.401-0.729-2.616 0-3.424 2.227-3.547 4.785-0.040 0.972-0.191 1.936-0.451 2.873-1.092 3.922-3.346 6.898-4.815 6.898-0.681 0-0.867-0.685-0.867-1.582 0-2.823 1.572-6.352 1.572-9.362 0-2.212-0.965-3.612-2.782-3.612-2.141 0-4.972 2.562-7.652 7.362 0.882-3.676 1.244-7.233-1.367-7.233-0.566 0.008-1.123 0.154-1.621 0.424-0.167 0.079-0.308 0.206-0.402 0.366s-0.139 0.345-0.127 0.53c0.25 3.912-3.135 13.935-6.344 13.935-0.583 0-0.867-0.636-0.867-1.661 0-2.828 1.675-8.801 2.518-11.535 0.108-0.355 0.167-0.66 0.167-0.926 0-0.749-0.46-1.133-1.504-1.133-1.146 0-2.391 0.439-3.591 2.562-0.421-1.872-1.68-2.69-3.439-2.69-2.885 0-6.109 3.070-7.525 7.071-1.896 5.341-5.717 10.501-10.861 10.501-4.669 0-7.133-3.908-7.133-10.082 0-8.914 6.506-16.197 11.331-16.197 2.307 0 3.409 1.478 3.409 3.745 0 2.745-1.523 4.021-1.523 5.065 0 0.32 0.265 0.636 0.789 0.636 2.097 0 4.566-2.479 4.566-5.859s-2.729-5.854-7.554-5.854c-7.975 0-15.999 8.071-15.999 18.414 0 8.229 4.037 13.191 11.017 13.191 4.762 0 8.921-3.725 11.164-8.071 0.255 3.602 1.881 5.484 4.36 5.484 2.204 0 3.988-1.321 5.349-3.641 0.524 2.429 1.915 3.617 3.723 3.617 2.072 0 3.806-1.321 5.457-3.775-0.025 1.927 0.411 3.74 2.072 3.74 0.784 0 1.719-0.182 1.886-0.872 1.749-7.273 6.070-13.211 7.392-13.211 0.392 0 0.5 0.379 0.5 0.828 0 1.976-1.386 6.026-1.386 8.613 0 2.794 1.181 4.642 3.62 4.642 2.704 0 5.452-3.331 7.285-8.199 0.573 4.548 1.813 8.219 3.752 8.219 2.381 0 6.608-5.041 9.171-10.377 1.004 0.128 2.513 0.094 3.963-0.936-0.617 1.572-0.98 3.292-0.98 5.011 0 4.952 2.351 6.342 4.375 6.342 2.2 0 3.983-1.321 5.349-3.641 0.451 2.094 1.602 3.612 3.718 3.612 3.312 0 6.187-3.405 6.187-6.199 0-0.739-0.313-1.188-0.681-1.188zM28.708 26.471c-1.337 0-1.862-1.355-1.862-3.375 0-3.508 2.386-9.367 4.909-9.367 1.102 0 1.519 1.306 1.519 2.902 0 3.563-2.268 9.84-4.566 9.84zM74.517 16c-0.798-0.956-1.087-2.257-1.087-3.415 0-1.429 0.519-2.636 1.141-2.636s0.813 0.616 0.813 1.473c0 1.434-0.509 3.528-0.867 4.578zM84.887 26.471c-1.337 0-1.861-1.557-1.861-3.375 0-3.385 2.386-9.367 4.928-9.367 1.102 0 1.494 1.296 1.494 2.902 0 3.563-2.229 9.84-4.561 9.84z"></path>
</symbol>
<symbol id="icon-Lightroom" viewBox="0 0 32 32">
<path fill="#001e36" style="fill: var(--color1, #001e36)" d="M5.667 0h20.667c0.744-0.001 1.482 0.149 2.169 0.441s1.313 0.72 1.839 1.26c0.526 0.54 0.944 1.181 1.228 1.886s0.431 1.462 0.43 2.225v20.376c0.001 0.764-0.145 1.52-0.43 2.225s-0.702 1.346-1.228 1.886c-0.526 0.54-1.151 0.968-1.839 1.26s-1.425 0.442-2.169 0.441h-20.667c-0.744 0.001-1.482-0.149-2.169-0.441s-1.313-0.72-1.839-1.26c-0.526-0.54-0.944-1.181-1.228-1.886s-0.431-1.462-0.43-2.225v-20.376c-0.001-0.763 0.145-1.52 0.43-2.225s0.702-1.346 1.228-1.886c0.526-0.54 1.151-0.968 1.839-1.26s1.425-0.442 2.169-0.441z"></path>
<path fill="#31a8ff" style="fill: var(--color2, #31a8ff)" d="M16.8 22.619h-8.453c-0.147 0-0.213-0.082-0.213-0.246v-13.976c-0.003-0.023-0.002-0.045 0.004-0.067s0.016-0.042 0.030-0.060c0.014-0.018 0.031-0.033 0.050-0.044s0.041-0.018 0.063-0.020h2.667c0.017-0.003 0.034-0.003 0.050 0.001s0.032 0.011 0.046 0.021c0.014 0.010 0.025 0.023 0.034 0.038s0.014 0.032 0.017 0.049v11.528h6.16c0.133 0 0.173 0.068 0.147 0.192l-0.387 2.379c-0.002 0.032-0.010 0.062-0.024 0.090s-0.033 0.053-0.056 0.074c-0.039 0.028-0.086 0.042-0.133 0.041z"></path>
<path fill="#31a8ff" style="fill: var(--color2, #31a8ff)" d="M18.933 11.679h2.333c0.063 0.002 0.124 0.024 0.174 0.063s0.087 0.094 0.105 0.156c0.055 0.097 0.091 0.204 0.107 0.315 0.027 0.137 0.053 0.287 0.067 0.424s0.027 0.315 0.027 0.492c0.4-0.479 0.884-0.878 1.427-1.176 0.609-0.339 1.294-0.508 1.987-0.492 0.022-0.003 0.044-0.002 0.066 0.004s0.041 0.016 0.059 0.030c0.017 0.014 0.032 0.031 0.043 0.051s0.017 0.042 0.020 0.064v2.721c0 0.109-0.067 0.15-0.213 0.15-0.864-0.053-1.728 0.106-2.52 0.465-0.27 0.118-0.515 0.29-0.72 0.506v6.974c0 0.137-0.053 0.191-0.173 0.191h-2.6c-0.025 0.004-0.050 0.003-0.074-0.003s-0.047-0.017-0.067-0.032c-0.020-0.015-0.037-0.035-0.049-0.057s-0.020-0.047-0.023-0.072v-7.631c0-0.328 0-0.67-0.013-1.026s-0.013-0.711-0.027-1.067c-0.013-0.301-0.040-0.602-0.080-0.902-0.004-0.016-0.004-0.033-0.001-0.049s0.009-0.032 0.017-0.046c0.009-0.014 0.020-0.026 0.033-0.036s0.028-0.016 0.044-0.020c0.013-0.014 0.027-0.014 0.053 0z"></path>
</symbol>
<symbol id="icon-linkedn" viewBox="0 0 32 32">
<path fill="#fff" style="fill: var(--color1, #fff)" d="M30.72 0h-29.44c-0.708 0-1.28 0.572-1.28 1.28v29.44c0 0.708 0.572 1.28 1.28 1.28h29.44c0.708 0 1.28-0.572 1.28-1.28v-29.44c0-0.708-0.572-1.28-1.28-1.28zM9.492 27.268h-4.748v-15.272h4.748v15.272zM7.12 9.908c-0.544 0-1.076-0.161-1.529-0.464s-0.805-0.732-1.014-1.235c-0.208-0.503-0.263-1.056-0.157-1.59s0.368-1.024 0.753-1.409c0.385-0.385 0.875-0.647 1.409-0.753s1.087-0.052 1.59 0.157c0.503 0.208 0.933 0.561 1.235 1.014s0.464 0.985 0.464 1.529c-0.004 1.52-1.236 2.752-2.752 2.752zM27.268 27.268h-4.744v-7.428c0-1.772-0.032-4.048-2.468-4.048-2.468 0-2.848 1.928-2.848 3.92v7.556h-4.74v-15.272h4.552v2.088h0.064c0.632-1.2 2.18-2.468 4.492-2.468 4.808 0 5.692 3.164 5.692 7.276v8.376z"></path>
</symbol>
<symbol id="icon-discord" viewBox="0 0 44 32">
<path fill="#fff" style="fill: var(--color1, #fff)" d="M36.418 2.659c-2.672-1.24-5.564-2.139-8.577-2.659-0.026-0.001-0.053 0.004-0.077 0.014s-0.046 0.026-0.064 0.046c-0.362 0.66-0.783 1.52-1.065 2.179-3.196-0.48-6.446-0.48-9.642 0-0.281-0.68-0.703-1.52-1.085-2.179-0.020-0.040-0.080-0.060-0.141-0.060-3.013 0.52-5.886 1.42-8.577 2.659-0.020 0-0.040 0.020-0.060 0.040-5.464 8.138-6.97 16.056-6.227 23.894 0 0.040 0.020 0.080 0.060 0.1 3.616 2.639 7.091 4.239 10.526 5.299 0.060 0.020 0.121 0 0.141-0.040 0.803-1.1 1.527-2.259 2.149-3.479 0.040-0.080 0-0.16-0.080-0.18-1.145-0.44-2.23-0.96-3.294-1.56-0.080-0.040-0.080-0.16-0.020-0.22 0.221-0.16 0.442-0.34 0.663-0.5 0.040-0.040 0.1-0.040 0.141-0.020 6.91 3.139 14.362 3.139 21.192 0 0.040-0.020 0.1-0.020 0.141 0.020 0.221 0.18 0.442 0.34 0.663 0.52 0.080 0.060 0.080 0.18-0.020 0.22-1.045 0.62-2.149 1.12-3.294 1.56-0.080 0.020-0.1 0.12-0.080 0.18 0.643 1.22 1.366 2.379 2.149 3.479 0.060 0.020 0.12 0.040 0.181 0.020 3.455-1.060 6.93-2.659 10.546-5.299 0.040-0.020 0.060-0.060 0.060-0.1 0.884-9.058-1.466-16.916-6.227-23.894-0.020-0.020-0.040-0.040-0.080-0.040zM14.825 21.814c-2.069 0-3.796-1.899-3.796-4.239s1.687-4.239 3.796-4.239c2.129 0 3.817 1.92 3.796 4.239 0 2.34-1.687 4.239-3.796 4.239zM28.825 21.814c-2.069 0-3.797-1.899-3.797-4.239s1.687-4.239 3.797-4.239c2.129 0 3.817 1.92 3.797 4.239 0 2.34-1.667 4.239-3.797 4.239z"></path>
</symbol>
<symbol id="icon-tik" viewBox="0 0 27 32">
<path fill="#fff" style="fill: var(--color1, #fff)" d="M21.482 5.013c-1.18-1.387-1.831-3.169-1.831-5.013h-5.336v22.044c-0.041 1.193-0.53 2.323-1.365 3.152s-1.948 1.292-3.108 1.293c-2.452 0-4.49-2.062-4.49-4.622 0-3.058 2.867-5.351 5.819-4.409v-5.618c-5.958-0.818-11.173 3.947-11.173 10.027 0 5.92 4.766 10.133 9.826 10.133 5.422 0 9.826-4.533 9.826-10.133v-11.182c2.164 1.6 4.762 2.458 7.425 2.453v-5.493c0 0-3.247 0.16-5.595-2.631z"></path>
</symbol>
<symbol id="icon-you-tube" viewBox="0 0 47 32">
<path fill="#fff" style="fill: var(--color1, #fff)" d="M44.567 3.058c-1.263-2.227-2.633-2.637-5.423-2.793-2.787-0.188-9.795-0.265-15.866-0.265-6.083 0-13.094 0.078-15.878 0.263-2.784 0.159-4.157 0.565-5.431 2.796-1.3 2.224-1.969 6.056-1.969 12.801 0 0.006 0 0.009 0 0.009 0 0.006 0 0.009 0 0.009v0.006c0 6.717 0.669 10.577 1.969 12.778 1.274 2.227 2.644 2.631 5.428 2.819 2.787 0.162 9.798 0.257 15.881 0.257 6.071 0 13.079-0.095 15.869-0.254 2.79-0.188 4.16-0.591 5.423-2.819 1.312-2.201 1.975-6.062 1.975-12.778 0 0 0-0.009 0-0.014v-0.009c0-6.748-0.663-10.58-1.978-12.804z"></path>
<path fill="#1a1a1a" style="fill: var(--color2, #1a1a1a)" d="M17.455 24.523v-17.311l14.545 8.655-14.545 8.655z"></path>
</symbol>
<symbol id="icon-facebook" viewBox="0 0 32 32">
<path fill="#fff" style="fill: var(--color1, #fff)" d="M31.605 15.672c0-8.651-7.080-15.672-15.803-15.672s-15.802 7.021-15.802 15.672c0 7.585 5.436 13.901 12.642 15.359v-10.657h-3.161v-4.702h3.161v-3.918c0-3.025 2.481-5.485 5.531-5.485h3.951v4.702h-3.161c-0.869 0-1.58 0.705-1.58 1.567v3.134h4.741v4.702h-4.741v10.892c7.98-0.784 14.222-7.46 14.222-15.594z"></path>
</symbol>
<symbol id="icon-telegram" viewBox="0 0 38 32">
<path fill="#fff" style="fill: var(--color1, #fff)" d="M36.447 0.851c-0.452-0.548-1.13-0.851-1.907-0.851-0.423 0-0.871 0.088-1.331 0.263l-31.336 11.863c-1.663 0.629-1.887 1.574-1.873 2.081s0.292 1.438 1.988 1.972c0.010 0.003 0.020 0.006 0.030 0.009l4.395 1.247 21.403-10.844c0.533-0.271 1.187-0.061 1.459 0.469 0.214 0.416 0.128 0.904-0.177 1.226l-11.899 12.541-0.339 1.364 10.138 8.096c0.005 0.004 0.010 0.008 0.016 0.012 0.648 0.498 1.356 0.762 2.047 0.762 1.351 0 2.426-0.991 2.739-2.525l5.134-25.143c0.206-1.009 0.033-1.912-0.487-2.543z"></path>
<path fill="#fff" style="fill: var(--color1, #fff)" d="M15.163 20.037c0.043-0.174 0.13-0.34 0.263-0.48l7.808-8.228-14.49 7.341 3.29 9.331c0.188 0.532 0.467 0.984 0.812 1.339l2.317-9.303z"></path>
<path fill="#fff" style="fill: var(--color1, #fff)" d="M14.866 30.205c0.782-0.006 1.55-0.334 2.224-0.948l2.407-2.198-3.209-2.563-1.421 5.71z"></path>
</symbol>
<symbol id="icon-After-Effects" viewBox="0 0 32 32">
<path fill="#00005b" style="fill: var(--color3, #00005b)" d="M5.667 0h20.667c0.744-0.001 1.482 0.149 2.169 0.441s1.313 0.72 1.839 1.26c0.526 0.54 0.944 1.181 1.228 1.886s0.431 1.462 0.43 2.225v20.376c0.001 0.764-0.145 1.52-0.43 2.225s-0.702 1.346-1.228 1.886c-0.526 0.54-1.151 0.968-1.839 1.26s-1.425 0.442-2.169 0.441h-20.667c-0.744 0.001-1.482-0.149-2.169-0.441s-1.313-0.72-1.839-1.26c-0.526-0.54-0.944-1.181-1.228-1.886s-0.431-1.462-0.43-2.225v-20.376c-0.001-0.763 0.145-1.52 0.43-2.225s0.702-1.346 1.228-1.886c0.526-0.54 1.151-0.968 1.839-1.26s1.425-0.442 2.169-0.441z"></path>
<path fill="#99f" style="fill: var(--color4, #99f)" d="M12.853 19.145h-4.96l-1.013 3.227c-0.011 0.059-0.044 0.111-0.090 0.146s-0.105 0.052-0.163 0.045h-2.507c-0.147 0-0.187-0.082-0.147-0.246l4.293-12.622c0.040-0.137 0.080-0.26 0.133-0.424 0.054-0.293 0.080-0.591 0.080-0.889-0.004-0.034 0.005-0.069 0.025-0.097s0.049-0.047 0.082-0.054h3.453c0.093 0 0.16 0.041 0.173 0.109l4.867 14.017c0.040 0.15 0 0.219-0.133 0.219h-2.787c-0.047 0.005-0.094-0.008-0.133-0.035s-0.067-0.068-0.080-0.115l-1.093-3.282zM8.666 16.424h3.387c-0.080-0.287-0.187-0.629-0.307-0.985s-0.24-0.766-0.36-1.176c-0.12-0.41-0.253-0.834-0.387-1.258s-0.253-0.821-0.36-1.217c-0.107-0.397-0.2-0.739-0.293-1.067h-0.027c-0.12 0.596-0.271 1.185-0.453 1.764-0.2 0.656-0.4 1.34-0.613 2.024-0.173 0.697-0.387 1.34-0.587 1.915z"></path>
<path fill="#99f" style="fill: var(--color4, #99f)" d="M24.987 17.887h-4.227c0.050 0.431 0.192 0.847 0.413 1.217 0.236 0.369 0.575 0.655 0.973 0.82 0.539 0.236 1.121 0.353 1.707 0.342 0.466-0.009 0.93-0.059 1.387-0.151 0.407-0.055 0.805-0.16 1.187-0.314 0.067-0.055 0.107-0.027 0.107 0.109v2.092c-0.002 0.056-0.011 0.111-0.027 0.164-0.024 0.038-0.056 0.071-0.093 0.096-0.426 0.192-0.874 0.33-1.333 0.41-0.624 0.123-1.258 0.178-1.893 0.164-1.013 0-1.867-0.164-2.56-0.479-0.652-0.291-1.228-0.736-1.68-1.299-0.422-0.527-0.735-1.136-0.92-1.791-0.391-1.364-0.372-2.818 0.053-4.171 0.213-0.685 0.552-1.321 1-1.873 0.441-0.546 0.991-0.989 1.613-1.299 0.627-0.315 1.373-0.424 2.227-0.424 0.711-0.017 1.417 0.128 2.067 0.424 0.546 0.243 1.027 0.618 1.4 1.094 0.354 0.467 0.625 0.995 0.8 1.559 0.169 0.539 0.255 1.102 0.253 1.668 0 0.328-0.013 0.615-0.027 0.875s-0.040 0.451-0.053 0.574c-0.006 0.047-0.028 0.091-0.062 0.124s-0.078 0.052-0.125 0.054c-0.080 0-0.227 0.014-0.44 0.027-0.257 0.030-0.515 0.044-0.773 0.041-0.307 0-0.627-0.055-0.973-0.055zM20.76 15.891h2.813c0.347 0 0.6 0 0.76-0.014 0.11-0.009 0.215-0.047 0.307-0.109v-0.137c0-0.172-0.026-0.343-0.080-0.506-0.117-0.374-0.349-0.699-0.662-0.926s-0.689-0.343-1.072-0.332c-0.362-0.021-0.722 0.066-1.037 0.251s-0.57 0.458-0.737 0.789c-0.155 0.307-0.255 0.641-0.293 0.985z"></path>
</symbol>
<symbol id="icon-Illustrator" viewBox="0 0 32 32">
<path fill="#300" style="fill: var(--color5, #300)" d="M5.667 0h20.667c0.744-0.001 1.482 0.149 2.169 0.441s1.313 0.72 1.839 1.26c0.526 0.54 0.944 1.181 1.228 1.886s0.431 1.462 0.43 2.225v20.376c0.001 0.764-0.145 1.52-0.43 2.225s-0.702 1.346-1.228 1.886c-0.526 0.54-1.151 0.968-1.839 1.26s-1.425 0.442-2.169 0.441h-20.667c-0.744 0.001-1.482-0.149-2.169-0.441s-1.313-0.72-1.839-1.26c-0.526-0.54-0.944-1.181-1.228-1.886s-0.431-1.462-0.43-2.225v-20.376c-0.001-0.763 0.145-1.52 0.43-2.225s0.702-1.346 1.228-1.886c0.526-0.54 1.151-0.968 1.839-1.26s1.425-0.442 2.169-0.441z"></path>
<path fill="#ff9a00" style="fill: var(--color6, #ff9a00)" d="M15.506 19.2h-4.96l-1.013 3.214c-0.011 0.059-0.044 0.111-0.090 0.146s-0.105 0.052-0.163 0.045h-2.507c-0.147 0-0.187-0.082-0.147-0.246l4.293-12.677c0.040-0.137 0.080-0.287 0.133-0.451 0.054-0.293 0.080-0.591 0.080-0.889-0.004-0.034 0.005-0.069 0.024-0.097s0.049-0.047 0.082-0.054h3.453c0.107 0 0.16 0.041 0.173 0.109l4.867 14.085c0.040 0.15 0 0.219-0.133 0.219h-2.787c-0.047 0.005-0.094-0.008-0.133-0.035s-0.067-0.068-0.080-0.115l-1.093-3.255zM11.32 16.424h3.387c-0.080-0.287-0.187-0.629-0.307-0.985s-0.24-0.766-0.36-1.176-0.253-0.834-0.387-1.258c-0.133-0.424-0.253-0.821-0.36-1.217s-0.2-0.739-0.293-1.067h-0.027c-0.12 0.596-0.271 1.185-0.453 1.764-0.2 0.656-0.4 1.34-0.613 2.024-0.187 0.697-0.387 1.34-0.587 1.915z"></path>
<path fill="#ff9a00" style="fill: var(--color6, #ff9a00)" d="M22.64 10.53c-0.219 0.005-0.436-0.035-0.64-0.117s-0.39-0.205-0.546-0.362c-0.305-0.343-0.468-0.794-0.453-1.258-0.008-0.226 0.031-0.451 0.113-0.661s0.208-0.399 0.366-0.556c0.32-0.311 0.746-0.482 1.187-0.479 0.52 0 0.92 0.164 1.213 0.479 0.295 0.332 0.453 0.768 0.44 1.217 0.008 0.231-0.029 0.461-0.109 0.678s-0.202 0.414-0.358 0.581c-0.157 0.164-0.347 0.292-0.556 0.374s-0.433 0.118-0.657 0.104zM21.146 22.4v-10.53c0-0.137 0.053-0.191 0.173-0.191h2.64c0.12 0 0.173 0.068 0.173 0.191v10.53c0 0.15-0.053 0.219-0.173 0.219h-2.613c-0.028 0.002-0.056-0.002-0.082-0.012s-0.050-0.027-0.069-0.048c-0.019-0.021-0.034-0.046-0.042-0.074s-0.011-0.057-0.006-0.085z"></path>
</symbol>
<symbol id="icon-Logo-footer" viewBox="0 0 124 32">
<path fill="#fec830" style="fill: var(--color1, #fec830)" d="M122.159 0l-75.551 4.609 1.667 27.391 75.551-4.609-1.667-27.391z"></path>
<path fill="#fff" style="fill: var(--color2, #fff)" d="M57.043 11.983l2.723-0.157 0.755 11.669-2.723 0.157-0.755-11.669z"></path>
<path fill="#fff" style="fill: var(--color2, #fff)" d="M66.277 13.823l-3.525 0.213-0.143-2.325 9.597-0.58 0.143 2.325-3.524 0.213 0.563 9.134-2.547 0.154-0.568-9.129 0.005-0.005z"></path>
<path fill="#fff" style="fill: var(--color2, #fff)" d="M73.053 18.006c-0.145-2.479 1.454-4.621 3.922-4.778 2.829-0.175 4.257 1.99 4.406 4.456 0.013 0.197 0.013 0.421 0.004 0.65l-5.891 0.372c0.304 1.098 1.098 1.641 2.173 1.569 0.811-0.054 1.375-0.35 2.001-1.018l1.45 1.156c-0.728 1.053-1.833 1.739-3.366 1.838-2.547 0.161-4.535-1.551-4.694-4.24l-0.004-0.004zM78.984 16.939c-0.207-1.094-0.881-1.797-1.895-1.73-0.995 0.063-1.599 0.829-1.727 1.959l3.618-0.224 0.004-0.005z"></path>
<path fill="#fff" style="fill: var(--color2, #fff)" d="M84.183 17.31c-0.145-2.479 1.454-4.621 3.922-4.778 2.829-0.175 4.257 1.99 4.406 4.456 0.013 0.197 0.013 0.421 0.004 0.65l-5.891 0.372c0.304 1.098 1.098 1.641 2.173 1.569 0.811-0.054 1.375-0.35 2.001-1.017l1.45 1.156c-0.732 1.053-1.833 1.739-3.366 1.838-2.547 0.161-4.535-1.551-4.694-4.24l-0.004-0.004zM90.114 16.243c-0.211-1.094-0.881-1.797-1.895-1.73-0.995 0.063-1.599 0.829-1.723 1.959l3.618-0.224v-0.005z"></path>
<path fill="#fff" style="fill: var(--color2, #fff)" d="M95.304 12.299l2.424-0.15 0.076 1.213c0.511-0.757 1.19-1.452 2.415-1.527 1.829-0.115 2.975 1.036 3.095 3.002l0.337 5.547-2.425 0.151-0.288-4.781c-0.067-1.151-0.648-1.709-1.572-1.651s-1.473 0.686-1.407 1.837l0.289 4.781-2.424 0.15-0.52-8.566v-0.004z"></path>
<path fill="#fff" style="fill: var(--color2, #fff)" d="M106.435 19.765l0.956-1.699c0.977 0.632 1.983 0.926 2.794 0.876 0.712-0.045 1.018-0.325 0.995-0.745-0.036-0.538-0.883-0.664-1.857-0.899-1.231-0.285-2.646-0.773-2.749-2.498-0.109-1.78 1.258-2.86 3.002-2.964 1.1-0.072 2.321 0.235 3.299 0.813l-0.834 1.766c-0.883-0.456-1.766-0.714-2.393-0.673-0.595 0.036-0.893 0.316-0.87 0.696 0.027 0.492 0.87 0.664 1.83 0.935 1.24 0.334 2.678 0.836 2.776 2.462 0.117 1.943-1.267 2.914-3.142 3.022-1.221 0.077-2.605-0.244-3.808-1.093z"></path>
<path fill="#fff" style="fill: var(--color2, #fff)" d="M49.058 12.729l-9.264-12.033-39.794 2.459 1.653 27.454 39.794-2.454 7.779-12.683 0.861-1.419-1.029-1.319v-0.005z"></path>
<path fill="#1a1a1a" style="fill: var(--color3, #1a1a1a)" d="M21.227 14.583l-5.52 0.336 0.167 2.67 2.577-0.156 0.079 1.307c-0.556 0.419-1.293 0.667-2.141 0.723-1.9 0.12-3.379-1.257-3.504-3.259-0.056-0.916 0.213-1.8 0.765-2.486 0.547-0.681 1.307-1.082 2.137-1.132 1.288-0.078 2.067 0.285 2.966 0.948l0.19 0.138 1.766-2.416-0.181-0.138c-1.455-1.082-2.85-1.477-4.825-1.358-3.55 0.216-6.164 3.13-5.951 6.628 0.213 3.466 2.818 5.873 6.271 5.873 0.153 0 0.306 0 0.459-0.014 1.914-0.115 3.597-0.861 5.006-2.209l0.079-0.074-0.329-5.39-0.009 0.009z"></path>
<path fill="#1a1a1a" style="fill: var(--color3, #1a1a1a)" d="M37.558 14.916c-0.217-3.562-3.051-6.084-6.608-5.858-3.516 0.221-6.102 3.134-5.895 6.636 0.203 3.415 2.826 5.872 6.179 5.872 0.14 0 0.284 0 0.424-0.014 3.512-0.221 6.102-3.134 5.895-6.636h0.004zM31.528 18.73c-0.849 0.051-1.666-0.225-2.284-0.787-0.672-0.607-1.070-1.473-1.128-2.439-0.054-0.939 0.208-1.822 0.74-2.49 0.542-0.676 1.336-1.081 2.23-1.137 0.068 0 0.135-0.005 0.203-0.005 0.776 0 1.508 0.276 2.081 0.796 0.672 0.607 1.070 1.473 1.128 2.439 0.117 1.951-1.16 3.507-2.97 3.626v-0.005z"></path>
</symbol>
<symbol id="icon-insta" viewBox="0 0 32 32">
<path fill="#fff" style="fill: var(--color2, #fff)" d="M22 0h-12c-5.522 0-10 4.441-10 9.917v11.901c0 5.476 4.478 9.918 10 9.918h12c5.522 0 10-4.441 10-9.918v-11.901c0-5.476-4.478-9.917-10-9.917zM29 21.818c0 3.828-3.14 6.942-7 6.942h-12c-3.86 0-7-3.114-7-6.942v-11.901c0-3.828 3.14-6.942 7-6.942h12c3.86 0 7 3.114 7 6.942v11.901z"></path>
<path fill="#fff" style="fill: var(--color2, #fff)" d="M16 7.934c-4.418 0-8 3.552-8 7.934s3.582 7.934 8 7.934c4.418 0 8-3.553 8-7.934s-3.582-7.934-8-7.934zM16 20.827c-2.756 0-5-2.225-5-4.959 0-2.735 2.244-4.959 5-4.959s5 2.223 5 4.959c0 2.733-2.244 4.959-5 4.959z"></path>
<path fill="#fff" style="fill: var(--color2, #fff)" d="M24.6 8.396c0.589 0 1.066-0.473 1.066-1.057s-0.477-1.057-1.066-1.057c-0.589 0-1.066 0.473-1.066 1.057s0.477 1.057 1.066 1.057z"></path>
</symbol>
<symbol id="icon-Visa" viewBox="0 0 48 32">
	<path fill="#fff" style="fill: var(--color1, #fff)" d="M5.538 0h36.923c2.719 0 4.923 2.204 4.923 4.923v22.154c0 2.719-2.204 4.923-4.923 4.923h-36.923c-2.719 0-4.923-2.204-4.923-4.923v-22.154c0-2.719 2.204-4.923 4.923-4.923z"></path>
<path fill="#059bbf" style="fill: var(--color9, #059bbf)" d="M22.662 10.052h-3.253l-2.032 11.923h3.248l2.037-11.923z"></path>
<path fill="#059bbf" style="fill: var(--color9, #059bbf)" d="M12.979 21.963l5.116-11.903h-3.443l-3.183 8.132-0.34-1.228c-0.624-1.477-2.407-3.603-4.5-4.942l2.909 9.944 3.44-0.004z"></path>
<path fill="#059bbf" style="fill: var(--color9, #059bbf)" d="M31.941 18.078c0.012-1.354-0.857-2.386-2.73-3.239-1.138-0.551-1.832-0.918-1.824-1.477 0-0.494 0.588-1.024 1.861-1.024 1.065-0.016 1.832 0.216 2.432 0.457l0.294 0.135 0.441-2.583c-0.645-0.241-1.653-0.498-2.913-0.498-3.211 0-5.472 1.616-5.492 3.934-0.020 1.714 1.616 2.669 2.848 3.24 1.265 0.582 1.689 0.955 1.681 1.477-0.008 0.799-1.008 1.163-1.942 1.163-1.302 0-1.991-0.179-3.061-0.625l-0.416-0.191-0.456 2.672c0.758 0.331 2.162 0.621 3.619 0.633 3.415 0 5.635-1.595 5.66-4.073z"></path>
<path fill="#059bbf" style="fill: var(--color9, #059bbf)" d="M35.805 20.188c0.371 0 3.689 0.004 4.162 0.004 0.098 0.415 0.396 1.787 0.396 1.787h3.016l-2.632-11.915h-2.509c-0.779 0-1.359 0.212-1.702 0.987l-4.827 10.928h3.416c0 0 0.555-1.469 0.681-1.791zM38.033 14.414c-0.016 0.033 0.27-0.69 0.433-1.138l0.22 1.028c0 0 0.62 2.848 0.751 3.444h-2.697c0.269-0.686 1.293-3.334 1.293-3.334z"></path>
<path fill="#059bbf" style="fill: var(--color9, #059bbf)" d="M44.62-0.127h-41.24c-1.527 0-2.765 1.238-2.765 2.765v2.869h46.769v-2.869c0-1.527-1.238-2.765-2.765-2.765z"></path>
<path fill="#f79f1a" style="fill: var(--color10, #f79f1a)" d="M10.996 16.186l-1.098-5.268c-0.188-0.726-0.734-0.943-1.417-0.971h-5.035l-0.045 0.241c3.921 0.951 6.516 3.244 7.594 5.999z"></path>
<path fill="#f79f1a" style="fill: var(--color10, #f79f1a)" d="M44.62 32.127h-41.24c-1.527 0-2.765-1.238-2.765-2.765v-2.869h46.769v2.869c0 1.527-1.238 2.765-2.765 2.765z"></path>
</symbol>
<symbol id="icon-MasterCard" viewBox="0 0 48 32">
<path fill="#fff" style="fill: var(--color1, #fff)" d="M5.538 0h36.923c2.719 0 4.923 2.204 4.923 4.923v22.154c0 2.719-2.204 4.923-4.923 4.923h-36.923c-2.719 0-4.923-2.204-4.923-4.923v-22.154c0-2.719 2.204-4.923 4.923-4.923z"></path>
<path fill="#ffb600" style="fill: var(--color2, #ffb600)" d="M36.62 15.61c0 4.155-3.333 7.551-7.5 7.551-4.127 0-7.5-3.396-7.5-7.551s3.333-7.551 7.46-7.551c4.206 0 7.539 3.396 7.539 7.551z"></path>
<path fill="#f7981d" style="fill: var(--color3, #f7981d)" d="M29.12 8.060c4.127 0 7.5 3.396 7.5 7.551s-3.333 7.551-7.5 7.551c-4.127 0-7.5-3.396-7.5-7.551z"></path>
<path fill="#ff8500" style="fill: var(--color4, #ff8500)" d="M29.12 8.060c4.127 0 7.5 3.396 7.5 7.551s-3.333 7.551-7.5 7.551z"></path>
<path fill="#ff5050" style="fill: var(--color5, #ff5050)" d="M19.041 8.060c-4.087 0.040-7.42 3.396-7.42 7.551s3.333 7.551 7.5 7.551c1.945 0 3.69-0.759 5.040-1.958 0.278-0.24 0.516-0.519 0.754-0.799h-1.548c-0.198-0.24-0.397-0.519-0.555-0.759h2.659c0.159-0.24 0.317-0.519 0.436-0.799h-3.532c-0.119-0.24-0.238-0.519-0.317-0.799h4.127c0.238-0.759 0.397-1.558 0.397-2.397 0-0.559-0.079-1.079-0.159-1.598h-4.603c0.040-0.28 0.119-0.519 0.198-0.799h4.127c-0.079-0.28-0.198-0.559-0.317-0.799h-3.492c0.119-0.28 0.278-0.519 0.436-0.799h2.659c-0.159-0.28-0.357-0.559-0.595-0.799h-1.468c0.238-0.28 0.476-0.519 0.754-0.759-1.309-1.238-3.088-2.038-5.032-2.038 0-0.080-0.008 0-0.047 0z"></path>
<path fill="#e52836" style="fill: var(--color6, #e52836)" d="M11.62 15.61c0 4.155 3.333 7.551 7.5 7.551 1.945 0 3.69-0.759 5.040-1.958 0.278-0.24 0.516-0.519 0.754-0.799h-1.548c-0.198-0.24-0.397-0.519-0.555-0.759h2.659c0.159-0.24 0.317-0.519 0.436-0.799h-3.532c-0.119-0.24-0.238-0.519-0.317-0.799h4.127c0.238-0.759 0.397-1.558 0.397-2.397 0-0.559-0.079-1.079-0.159-1.598h-4.603c0.040-0.28 0.119-0.519 0.198-0.799h4.127c-0.079-0.28-0.198-0.559-0.317-0.799h-3.492c0.119-0.28 0.278-0.519 0.436-0.799h2.659c-0.159-0.28-0.357-0.559-0.595-0.799h-1.468c0.238-0.28 0.476-0.519 0.754-0.759-1.309-1.238-3.088-2.038-5.032-2.038z"></path>
<path fill="#cb2026" style="fill: var(--color7, #cb2026)" d="M19.12 23.161c1.945 0 3.69-0.759 5.040-1.958 0.278-0.24 0.516-0.519 0.754-0.799h-1.548c-0.198-0.24-0.397-0.519-0.555-0.759h2.659c0.159-0.24 0.317-0.519 0.436-0.799h-3.532c-0.119-0.24-0.238-0.519-0.317-0.799h4.127c0.238-0.759 0.397-1.558 0.397-2.397 0-0.559-0.079-1.079-0.159-1.598h-4.603c0.040-0.28 0.119-0.519 0.198-0.799h4.127c-0.079-0.28-0.198-0.559-0.317-0.799h-3.492c0.119-0.28 0.278-0.519 0.436-0.799h2.659c-0.159-0.28-0.357-0.559-0.595-0.799h-1.468c0.238-0.28 0.476-0.519 0.754-0.759-1.309-1.238-3.088-2.038-5.032-2.038z"></path>
<path fill="#fff" style="fill: var(--color1, #fff)" d="M21.778 17.528l0.119-0.679c-0.040 0-0.119 0.040-0.198 0.040-0.278 0-0.317-0.16-0.278-0.24l0.238-1.398h0.436l0.119-0.759h-0.397l0.079-0.479h-0.794c0 0-0.476 2.637-0.476 2.956 0 0.479 0.278 0.679 0.635 0.679 0.238 0 0.436-0.080 0.516-0.12z"></path>
<path fill="#fff" style="fill: var(--color1, #fff)" d="M22.056 16.25c0 1.119 0.754 1.398 1.389 1.398 0.595 0 0.833-0.12 0.833-0.12l0.159-0.759c0 0-0.436 0.2-0.833 0.2-0.873 0-0.714-0.639-0.714-0.639h1.627c0 0 0.119-0.519 0.119-0.719 0-0.519-0.278-1.159-1.151-1.159-0.833-0.080-1.429 0.799-1.429 1.798zM23.445 15.091c0.437 0 0.357 0.519 0.357 0.559h-0.873c0-0.040 0.079-0.559 0.516-0.559z"></path>
<path fill="#fff" style="fill: var(--color1, #fff)" d="M28.485 17.528l0.159-0.879c0 0-0.397 0.2-0.675 0.2-0.556 0-0.794-0.439-0.794-0.919 0-0.959 0.476-1.478 1.032-1.478 0.397 0 0.714 0.24 0.714 0.24l0.119-0.839c0 0-0.476-0.2-0.913-0.2-0.913 0-1.825 0.799-1.825 2.317 0 0.999 0.476 1.678 1.428 1.678 0.318 0 0.754-0.12 0.754-0.12z"></path>
<path fill="#fff" style="fill: var(--color1, #fff)" d="M17.414 14.372c-0.556 0-0.952 0.16-0.952 0.16l-0.119 0.679c0 0 0.357-0.16 0.873-0.16 0.278 0 0.516 0.040 0.516 0.28 0 0.16-0.040 0.2-0.040 0.2s-0.238 0-0.357 0c-0.675 0-1.428 0.28-1.428 1.199 0 0.719 0.476 0.879 0.754 0.879 0.556 0 0.794-0.36 0.833-0.36l-0.040 0.32h0.714l0.317-2.197c0-0.959-0.794-0.999-1.071-0.999zM17.572 16.17c0 0.12-0.079 0.759-0.556 0.759-0.238 0-0.317-0.2-0.317-0.32 0-0.2 0.119-0.479 0.714-0.479 0.119 0.040 0.159 0.040 0.159 0.040z"></path>
<path fill="#fff" style="fill: var(--color1, #fff)" d="M19.239 17.608c0.198 0 1.19 0.040 1.19-1.039 0-0.999-0.952-0.799-0.952-1.199 0-0.2 0.159-0.28 0.437-0.28 0.119 0 0.556 0.040 0.556 0.040l0.119-0.719c0 0-0.278-0.080-0.754-0.080-0.595 0-1.19 0.24-1.19 1.039 0 0.919 0.992 0.839 0.992 1.199 0 0.24-0.278 0.28-0.476 0.28-0.357 0-0.714-0.12-0.714-0.12l-0.119 0.719c0.040 0.080 0.238 0.16 0.913 0.16z"></path>
<path fill="#fff" style="fill: var(--color1, #fff)" d="M35.072 13.733l-0.159 1.079c0 0-0.317-0.399-0.754-0.399-0.714 0-1.349 0.879-1.349 1.918 0 0.639 0.317 1.318 0.992 1.318 0.476 0 0.754-0.32 0.754-0.32l-0.040 0.28h0.794l0.595-3.835-0.833-0.040zM34.715 15.851c0 0.44-0.198 0.999-0.635 0.999-0.278 0-0.437-0.24-0.437-0.639 0-0.639 0.278-1.039 0.635-1.039 0.278 0 0.436 0.2 0.436 0.679z"></path>
<path fill="#fff" style="fill: var(--color1, #fff)" d="M13.088 17.569l0.476-2.876 0.079 2.876h0.555l1.032-2.876-0.437 2.876h0.833l0.635-3.835h-1.31l-0.794 2.357-0.040-2.357h-1.151l-0.635 3.835h0.754z"></path>
<path fill="#fff" style="fill: var(--color1, #fff)" d="M25.389 17.568c0.238-1.318 0.278-2.397 0.833-2.197 0.079-0.519 0.198-0.719 0.278-0.919 0 0-0.040 0-0.159 0-0.357 0-0.635 0.479-0.635 0.479l0.079-0.44h-0.754l-0.516 3.116h0.873v-0.040z"></path>
<path fill="#fff" style="fill: var(--color1, #fff)" d="M30.31 14.372c-0.555 0-0.952 0.16-0.952 0.16l-0.119 0.679c0 0 0.357-0.16 0.873-0.16 0.278 0 0.516 0.040 0.516 0.28 0 0.16-0.040 0.2-0.040 0.2s-0.238 0-0.357 0c-0.675 0-1.428 0.28-1.428 1.199 0 0.719 0.476 0.879 0.754 0.879 0.556 0 0.794-0.36 0.833-0.36l-0.040 0.32h0.714l0.317-2.197c0.040-0.959-0.794-0.999-1.071-0.999zM30.508 16.17c0 0.12-0.079 0.759-0.555 0.759-0.238 0-0.318-0.2-0.318-0.32 0-0.2 0.119-0.479 0.714-0.479 0.119 0.040 0.119 0.040 0.159 0.040z"></path>
<path fill="#fff" style="fill: var(--color1, #fff)" d="M32.056 17.568c0.238-1.318 0.278-2.397 0.833-2.197 0.079-0.519 0.198-0.719 0.278-0.919 0 0-0.040 0-0.159 0-0.357 0-0.635 0.479-0.635 0.479l0.079-0.44h-0.754l-0.516 3.116h0.873v-0.040z"></path>
<path fill="#dce5e5" style="fill: var(--color8, #dce5e5)" d="M20.548 16.969c0 0.479 0.278 0.679 0.635 0.679 0.278 0 0.516-0.080 0.595-0.12l0.119-0.679c-0.040 0-0.119 0.040-0.198 0.040-0.278 0-0.317-0.16-0.278-0.24l0.238-1.398h0.436l0.119-0.759h-0.397l0.079-0.479z"></path>
<path fill="#dce5e5" style="fill: var(--color8, #dce5e5)" d="M22.453 16.25c0 1.119 0.357 1.398 0.992 1.398 0.595 0 0.833-0.12 0.833-0.12l0.159-0.759c0 0-0.436 0.2-0.833 0.2-0.873 0-0.714-0.639-0.714-0.639h1.627c0 0 0.119-0.519 0.119-0.719 0-0.519-0.278-1.159-1.151-1.159-0.833-0.080-1.032 0.799-1.032 1.798zM23.445 15.091c0.437 0 0.516 0.519 0.516 0.559h-1.032c0-0.040 0.079-0.559 0.516-0.559z"></path>
<path fill="#dce5e5" style="fill: var(--color8, #dce5e5)" d="M28.485 17.528l0.159-0.879c0 0-0.397 0.2-0.675 0.2-0.556 0-0.794-0.439-0.794-0.919 0-0.959 0.476-1.478 1.032-1.478 0.397 0 0.714 0.24 0.714 0.24l0.119-0.839c0 0-0.476-0.2-0.913-0.2-0.913 0-1.428 0.799-1.428 2.317 0 0.999 0.079 1.678 1.032 1.678 0.318 0 0.754-0.12 0.754-0.12z"></path>
<path fill="#dce5e5" style="fill: var(--color8, #dce5e5)" d="M16.342 15.251c0 0 0.357-0.16 0.873-0.16 0.278 0 0.516 0.040 0.516 0.28 0 0.16-0.040 0.2-0.040 0.2s-0.238 0-0.357 0c-0.675 0-1.428 0.28-1.428 1.199 0 0.719 0.476 0.879 0.754 0.879 0.556 0 0.794-0.36 0.833-0.36l-0.040 0.32h0.714l0.317-2.197c0-0.919-0.794-0.959-1.111-0.959l-1.032 0.799zM17.969 16.17c0 0.12-0.476 0.759-0.952 0.759-0.238 0-0.317-0.2-0.317-0.32 0-0.2 0.119-0.479 0.714-0.479 0.119 0.040 0.556 0.040 0.556 0.040z"></path>
<path fill="#dce5e5" style="fill: var(--color8, #dce5e5)" d="M18.366 17.528c0 0 0.238 0.080 0.913 0.080 0.198 0 1.191 0.040 1.191-1.039 0-0.999-0.952-0.799-0.952-1.199 0-0.2 0.159-0.28 0.436-0.28 0.119 0 0.556 0.040 0.556 0.040l0.119-0.719c0 0-0.278-0.080-0.754-0.080-0.595 0-0.794 0.24-0.794 1.039 0 0.919 0.595 0.839 0.595 1.199 0 0.24-0.278 0.28-0.476 0.28z"></path>
<path fill="#dce5e5" style="fill: var(--color8, #dce5e5)" d="M34.913 14.812c0 0-0.317-0.399-0.754-0.399-0.714 0-0.953 0.879-0.953 1.918 0 0.639-0.079 1.318 0.595 1.318 0.476 0 0.754-0.32 0.754-0.32l-0.040 0.28h0.794l0.595-3.835-0.992 1.039zM34.873 15.851c0 0.439-0.357 0.998-0.793 0.998-0.278 0-0.437-0.24-0.437-0.639 0-0.639 0.278-1.039 0.635-1.039 0.278 0 0.595 0.2 0.595 0.679z"></path>
<path fill="#dce5e5" style="fill: var(--color8, #dce5e5)" d="M13.088 17.569l0.476-2.876 0.079 2.876h0.555l1.032-2.876-0.437 2.876h0.833l0.635-3.835h-0.992l-1.111 2.357-0.040-2.357h-0.436l-1.349 3.835h0.754z"></path>
<path fill="#dce5e5" style="fill: var(--color8, #dce5e5)" d="M24.556 17.568h0.833c0.238-1.318 0.278-2.397 0.833-2.197 0.079-0.519 0.198-0.719 0.278-0.919 0 0-0.040 0-0.159 0-0.357 0-0.635 0.479-0.635 0.479l0.079-0.44z"></path>
<path fill="#dce5e5" style="fill: var(--color8, #dce5e5)" d="M29.238 15.251c0 0 0.357-0.16 0.873-0.16 0.278 0 0.516 0.040 0.516 0.28 0 0.16-0.040 0.2-0.040 0.2s-0.238 0-0.357 0c-0.675 0-1.428 0.28-1.428 1.199 0 0.719 0.476 0.879 0.754 0.879 0.556 0 0.794-0.36 0.833-0.36l-0.040 0.32h0.714l0.317-2.197c0-0.919-0.794-0.959-1.111-0.959l-1.032 0.799zM30.865 16.17c0 0.12-0.476 0.759-0.952 0.759-0.238 0-0.317-0.2-0.317-0.32 0-0.2 0.119-0.479 0.714-0.479 0.159 0.040 0.556 0.040 0.556 0.040z"></path>
<path fill="#dce5e5" style="fill: var(--color8, #dce5e5)" d="M31.223 17.568h0.833c0.238-1.318 0.278-2.397 0.833-2.197 0.079-0.519 0.198-0.719 0.278-0.919 0 0-0.040 0-0.159 0-0.357 0-0.635 0.479-0.635 0.479l0.079-0.44z"></path>
</symbol>
<symbol id="icon-Polygon" viewBox="0 0 53 32">
<path fill="#653cd9" style="fill: var(--color1, #653cd9)" d="M26.667 32l-23.094-32h46.188l-23.094 32z"></path>
</symbol>
</defs>
</svg>
